@startuml
package "tablr" {

    class TableHandler{
        tableManager : TableManager {readOnly}
        terminated : boolean
        __Inspector__
        getNbTables() : int
        hasAsTable(name : String) : boolean
        getTableNames() : ArrayList<String>
        canHaveAsName(tableName : String, newTableName: String) : boolean {exception IllegalTableException}
        getOpenTable() : String
        isTerminated() : boolean
        createTableDesignHandler() : TableDesignHandler
        createTableRowsHandler() : TableRowsHandler

        __Mutator__
        <<constructor>> TableHandler()
        setTableName(tableName : String, newName : String) : void {exception IllegalTableException, IllegalArgumentException}
        addTable() : void
        removeTable(tableName : String): void {exception IllegalTableException}
        openTable(tableName : String): void  {exception IllegalTableException}
        - getTableManager() : TableManager
        - canHaveAsTableManager(tableManager : TableManager) : boolean

        __Responsibilities__
        providing a controller for table mode
    }


    class TableDesignHandler{
        tableManager : TableManager {readOnly}
        terminated : boolean
        __Inspector__
        getOpenTable() : String
        getColumnNames() : ArrayList<String> {exception IllegalTableException}
        getColumnType(columnName : String) : String {exception IllegalColumnException, IllegalTableException}
        getColumnAllowBlank(columnName : String) : boolean {exception IllegalColumnException, IllegalTableException}
        getColumnDefaultValue(columnName : String) : String {exception IllegalColumnException, IllegalTableException}
        canHaveAsColumnName(columnName : String, newName : String) : boolean {exception IllegalColumnException, IllegalTableException}
        canHaveAsColumnType(columnName : String, type : String) : boolean {exception IllegalColumnException, IllegalTableException}
        canHaveAsColumnAllowBlanks(columnName : String) : boolean {exception IllegalColumnException, IllegalTableException}
        canHaveAsDefaultValue(columnName : String, newDefaultValue : String) : boolean {exception IllegalColumnException, IllegalTableException}
        isTerminated() : boolean
        - canHaveAsTableManager(tableManager : TableManager) : boolean

        __Mutator__
        <<constructor>> TableDesignHandler(mng : TableManager) : TableDesignHandler {exception IllegalArgumentException}
        setColumnName(columnName : String, newColumnName : String) : void {exception IllegalColumnException, IllegalArgumentException, IllegalTableException}
        setColumnType(columName : String, type : String) : void {exception IllegalColumnException, IllegalArgumentException, IllegalTableException}
        setColumnAllowBlanks(columnName : String, blanks : boolean) : void {exception IllegalColumnException, IllegalArgumentException, IllegalTableException}
        setColumnDefaultValue(columnName : String, newDefaultValue : String) : void {IllegalColumnException, IllegalArgumentException, IllegalTableException}
        addColumn() : void {exception IllegalTableException}
        removeColumn(columnName : String) : void {exception IllegalArgumentException, IllegalTableException}


        __Responsibilities__
        managing access to columns

    }

    class TableRowsHandler{
        tableManager : TableManager {readOnly}
        terminated : boolean
        __Inspector__
        getOpenTable() : String
        getColumnNames() : ArrayList<String> {exception IllegalTableException}
        getColumnType(columnName : String) : String {exception IllegalColumnException, IllegalTableException}
        canHaveAsCellValue(columnName : String, row : int, value : String) : boolean {exception IllegalColumnException, IllegalRowException, IllegalTableException}
        getCellValue(columnName : String, Row : int) : String {exception IllegalColumnException, IllegalRowException, IllegalTableException}
        isTerminated() : boolean
        - canHaveAsTableManager(tableManager : TableManager) : boolean

        __Mutator__
        setCellValue(columnName : String, row : int, newValue : String) : void {exception IllegalColumnException, IllegalRowException, IllegalArgumentException, IllegalTableException}
        addRow() : void {exception IllegalTableException}
        removeRow(row : int) : void {exception IllegalRowException, IllegalTableException}

        __Responsibilities__
        managing access to rows

    }


    class TableManager{
        tables : List<Table> [*] = new LinkedList<Table>
        currentTable : Table [0...1] = null
        terminated : boolean = false
        __Inspectors__
        ~ hasAsTable(name : String) : boolean
        ~ getTableNames() : ArrayList<String>
        ~ canHaveAsName(tableName : String, newTableName: String) : boolean {exception IllegalTableException}
        ~ getOpenTable() : String
        ~ getColumnNames() : ArrayList<String> {exception IllegalTableException}
        ~ getColumnType(columnName : String) : String {exception IllegalColumnException, IllegalTableException}
        ~ getColumnAllowBlank(columnName : String) : boolean {exception IllegalColumnException, IllegalTableException}
        ~ getColumnDefaultValue(columnName : String) : String {exception IllegalColumnException, IllegalTableException}
        ~ canHaveAsColumnName(columnName : String, newName : String) : boolean {exception IllegalColumnException, IllegalTableException}
        ~ canHaveAsColumnType(columnName : String, type : String) : boolean {exception IllegalColumnException, IllegalTableException}
        ~ canHaveAsColumnAllowBlanks(columnName : String) : boolean {exception IllegalColumnException, IllegalTableException}
        ~ canHaveAsDefaultValue(columnName : String, newDefaultValue : String) : boolean {exception IllegalColumnException, IllegalTableException}
        ~ getCellValue(columnName : String, Row : int) : String {exception IllegalColumnException, IllegalRowException, IllegalTableException}
        ~ canHaveAsCellValue(columnName : String, row : int, value : String) : boolean {exception IllegalColumnException, IllegalRowException, IllegalTableException}
        ~ canTerminate() : boolean
        ~ isTerminated() : boolean
        - getNbTables() : int
        - hasAsTable(table : Table) : boolean
        - getTableAt(index : int) : Table {exception IllegalArgumentException}
        - getTable(name : String) : Table {exception IllegalTableException}
        - canHaveAsTable(table : Table) : boolean
        - canHaveAsTableAt(index : int,table : Table) : boolean
        - getTableIndex(table : Table) : int {exception IllegalArgumentException}
        - hasProperTables() : boolean
        - getCurrentTable() : Table
        - canHaveAsCurrentTable(table : Table) : boolean

        __Mutators__
        ~ <<constructor>> TableManager()
        ~ setTableName(tableName : String, newName : String) : void {exception IllegalTableException, IllegalArgumentException}
        ~ addTable() : void
        ~ removeTable(tableName : String): void {exception IllegalTableException}
        ~ openTable(tableName : String): void  {exception IllegalTableException}
        ~ setColumnName(columnName : String, newColumnName : String) : void {exception IllegalColumnException, IllegalArgumentException, IllegalTableException}
        ~ setColumnType(columName : String, type : String) : void {exception IllegalColumnException, IllegalArgumentException, IllegalTableException}
        ~ setColumnAllowBlanks(columnName : String, blanks : boolean) : void {exception IllegalColumnException, IllegalArgumentException, IllegalTableException}
        ~ setColumnDefaultValue(columnName : String, newDefaultValue : String) : void {IllegalColumnException, IllegalArgumentException, IllegalTableException}
        ~ addColumn() : void {exception IllegalTableException}
        ~ removeColumn(columnName : String) : void {exception IllegalArgumentException, IllegalTableException}
        ~ setCellValue(columnName : String, row : int, newValue : String) : void {exception IllegalColumnException, IllegalRowException, IllegalArgumentException, IllegalTableException}
        ~ addRow() : void {exception IllegalTableException}
        ~ removeRow(row : int) : void {exception IllegalRowException, IllegalTableException}
        ~ terminate() : void {exception IllegalStateException}
        - addTableAt(index : int, table : Table) : void {exception IllegalArgumentException}
        - removeTableAt(index : int) : void {exception IllegalArgumentException}
        - removeTable(table : Table) : void {exception IllegalArgumentException}
        - appendTable(table : Table) : void {exception IllegalArgumentException}
        - insertAtFrontTable(table : Table) : void {exception IllegalArgumentException}
        - setCurrentTable(table : Table) : void {exception IllegalTableException}

        __Responsibility__
        manage tables and manage access to tables
    }

    Table "0..*" <-- TableManager
    TableHandler --> "1" TableManager
    TableDesignHandler --> "1" TableManager
    TableRowsHandler --> "1" TableManager



    class Table{
        name : string = "newTable"
        <<constructor>> Table(String) {exception IllegalArgumentException}
        getName(): String
        isValidName(String): boolean {static}
        setName(String) {exception IllegalArgumentException}
        getNbColumns: int
        getColumnAt(int): Column
        canHaveAsColumnAt(int): boolean
        hasProperColumns: boolean
        addColumnAt(int)
        removeColumnAt(int)
        - setNbColumns(int)

        create(): Column
        destroy(Column) : void
        addRow() : void
        deleteRow(Integer) : void
        __Responsibility__
        manage Column
    }

    package "column" {

        Column <|-- BooleanColumn
        Column <|-- IntegerColumn
        Column <|-- EmailColumn
        Column <|-- StringColumn

        class Column{
            -name:String
            -allowsBlanks: boolean
            -defaultValue: String = ""
            -values : List<String>
            -isTerminated: boolean
            - {static} allTypes: List<String>
            __
            +getName(): String
            +setName(String) {exception IllegalArgumentException}
            +canHaveAsName(String): boolean
            +getType(): String
            +getAllTypes(): ArrayList<String>
            +canHaveAsType(String): boolean
            +isBlanksAllowed(): boolean
            +setBlankAllowed(boolean) {exception IllegalArgumentException}
            -canHaveBlanksAllowed(boolean): boolean
            -isValueBlank(String): boolean
            +getDefaultValue(): String
            +setDefaultValue(String) {exception IllegalArgumentException}
            +getNbValues(): int
            +getValueAt(int): String {exception IndexOutOfBoundsException}
            #canHaveAsValue(String): boolean
            +canHaveAsDefaultValue(String): boolean
            -canHaveAsValueAt(int, String): boolean
            +hasProperValues(): boolean
            +addValueAt(int String) {exception IllegalArgumentException}
            +addValue(String) {exception IllegalArgumentException}
            +addValue() {exception IllegalArgumentException}
            +setValueAt(int, String) {exception IllegalArgumentException}
            +removeValueAt(int) {exception IllegalArgumentException}
            +isTerminated(): boolean
            +terminate()

        __Responsibility__
        Manage list with correct entries
        }

        Table *-- "0..*" Column

        class BooleanColumn{
            -type: String = "Boolean"
            __
            +getType(): String
            +canHaveAsType(String): boolean
            +canHaveAsValue(String): boolean
        }
        class StringColumn{
            -type: String = "String"
            __
            +getType(): String
            +canHaveAsType(String): boolean
            +canHaveAsValue(String): boolean
        }
        class EmailColumn{
            -type: String = "Email"
            __
            +getType(): String
            +canHaveAsType(String): boolean
            +canHaveAsValue(String): boolean
        }
        class IntegerColumn{
            -type: String = "Integer"
            __
            +getType(): String
            +canHaveAsType(String): boolean
            +canHaveAsValue(String): boolean
        }
    }
}
@enduml